HIERARCHY
ROOT Hips
{
	OFFSET 0.00000 0.00000 0.00000
	CHANNELS 6 Xposition Yposition Zposition Zrotation Yrotation Xrotation 
	JOINT LHipJoint
	{
		OFFSET 0 0 0
		CHANNELS 3 Zrotation Yrotation Xrotation
		JOINT LeftHip
		{
			OFFSET 1.74857 -1.85566 0.69197
			CHANNELS 3 Zrotation Yrotation Xrotation
			JOINT LeftKnee
			{
				OFFSET 2.40003 -6.59403 0.00000
				CHANNELS 3 Zrotation Yrotation Xrotation
				JOINT LeftAnkle
				{
					OFFSET 2.82169 -7.75254 0.00000
					CHANNELS 3 Zrotation Yrotation Xrotation
					JOINT LeftToe
					{
						OFFSET 0.16466 -0.45240 2.26890
						CHANNELS 3 Zrotation Yrotation Xrotation
						End Site
						{
							OFFSET 0.00000 -0.00000 1.16486
						}
					}
				}
			}
		}
	}
	JOINT RHipJoint
	{
		OFFSET 0 0 0
		CHANNELS 3 Zrotation Yrotation Xrotation
		JOINT RightHip
		{
			OFFSET -1.64169 -1.85566 0.69197
			CHANNELS 3 Zrotation Yrotation Xrotation
			JOINT RightKnee
			{
				OFFSET -2.41814 -6.64379 0.00000
				CHANNELS 3 Zrotation Yrotation Xrotation
				JOINT RightAnkle
				{
					OFFSET -2.80588 -7.70911 0.00000
					CHANNELS 3 Zrotation Yrotation Xrotation
					JOINT RightToe
					{
						OFFSET -0.19098 -0.52472 2.25401
						CHANNELS 3 Zrotation Yrotation Xrotation
						End Site
						{
							OFFSET -0.00000 -0.00000 1.16333
						}
					}
				}
			}
		}
	}
	JOINT lowerback
	{
		OFFSET 0 0 0
		CHANNELS 3 Zrotation Yrotation Xrotation
		JOINT Chest
		{
			OFFSET -0.02828 2.14690 -0.11061
			CHANNELS 3 Zrotation Yrotation Xrotation
			JOINT Chest2
			{
				OFFSET -0.00167 2.15299 0.00759
				CHANNELS 3 Zrotation Yrotation Xrotation
				JOINT lowerneck
				{
					OFFSET 0 0 0
					CHANNELS 3 Zrotation Yrotation Xrotation
					JOINT Neck
					{
						OFFSET -0.09296 1.90118 0.07197
						CHANNELS 3 Zrotation Yrotation Xrotation
						JOINT Head
						{
							OFFSET 0.08490 1.89526 -0.24604
							CHANNELS 3 Zrotation Yrotation Xrotation
							End Site
							{
								OFFSET 0.03186 1.92109 -0.09483
							}
						}
					}
				}
				JOINT LeftCollar
				{
					OFFSET 0 0 0
					CHANNELS 3 Zrotation Yrotation Xrotation
					JOINT LeftShoulder
					{
						OFFSET 3.21569 1.44644 -0.03720
CHANNELS 3 Zrotation Xrotation Yrotation
						JOINT LeftElbow
						{
OFFSET 0 -5.476510 -0.000000
CHANNELS 3 Zrotation Xrotation Yrotation
							JOINT LeftWrist
							{
OFFSET 0 -3.090580 -0.000000
CHANNELS 3 Zrotation Xrotation Yrotation
								JOINT lhand
								{
									OFFSET 0 0 0
CHANNELS 3 Zrotation Xrotation Yrotation
									JOINT LFingers
									{
OFFSET 0 -0.771610 -0.000000
CHANNELS 3 Zrotation Xrotation Yrotation
										End Site
										{
OFFSET 0 -0.622090 -0.000000
										}
									}
								}
								JOINT LThumb
								{
OFFSET 0 0.000000 0.000000
CHANNELS 3 Zrotation Xrotation Yrotation
									End Site
									{
OFFSET 0 -0.631590 0.631590
									}
								}
							}
						}
					}
				}
				JOINT RightCollar
				{
					OFFSET 0 0 0
					CHANNELS 3 Zrotation Yrotation Xrotation
					JOINT RightShoulder
					{
						OFFSET -3.38693 1.28904 -0.07093
CHANNELS 3 Zrotation Xrotation Yrotation
						JOINT RightElbow
						{
OFFSET 0 -5.141820 -0.000000
CHANNELS 3 Zrotation Xrotation Yrotation
							JOINT RightWrist
							{
OFFSET 0 -3.355650 -0.000000
CHANNELS 3 Zrotation Xrotation Yrotation
								JOINT rhand
								{
									OFFSET 0 0 0
CHANNELS 3 Zrotation Xrotation Yrotation
									JOINT RFingers
									{
OFFSET 0 -0.801040 -0.000000
CHANNELS 3 Zrotation Xrotation Yrotation
										End Site
										{
OFFSET 0 -0.645820 -0.000000
										}
									}
								}
								JOINT RThumb
								{
OFFSET 0 0.000000 0.000000
CHANNELS 3 Zrotation Xrotation Yrotation
									End Site
									{
OFFSET 0 -0.655680 0.655680
									}
								}
							}
						}
					}
				}
			}
		}
	}
}
MOTION
Frames: 9
Frame Time: 0.008333333333333333
-0.423239 16.699365 -0.868199 4.018868 14.984261 2.946983 0.000000 0.000000 0.000000 -19.103052 -11.706711 -28.771461 7.715104 15.905670 51.529847 1.593793 -5.579167 -22.712446 0.771742 -5.609230 -15.654753 0.000000 0.000000 0.000000 14.395687 -6.070038 -31.899857 -9.212374 -16.942438 56.821758 -2.075368 -12.609917 -34.142510 -0.423437 4.176416 -11.573511 1.936104 6.615936 19.663161 -1.838298 9.060186 12.045605 -4.490090 4.840825 2.803076 0.917796 5.405942 6.995439 2.261033 7.280720 1.097617 0.338923 3.597390 -0.868844 0.000000 0.000000 0.000000 -6.584592 -53.099096 -60.420344 150.248246 -40.679622 108.752509 -33.591011 -7.483171 -37.779155 0.000000 0.000000 0.000000 -7.125000 0.000000 0.000000 -69.995924 54.790021 25.848244 0.000000 0.000000 0.000000 -4.075518 -46.374667 42.753675 -149.373928 -41.424004 -108.178330 32.183545 13.010016 9.953065 0.000000 0.000000 0.000000 7.125000 0.000000 0.000000 45.230704 35.150952 15.339340
-0.461902 16.685101 -0.869100 4.312037 15.818054 3.084722 0.000000 0.000000 0.000000 -19.257631 -12.301141 -28.827674 7.720599 15.909899 51.550095 1.547996 -5.748042 -22.356069 0.752795 -5.541683 -15.460151 0.000000 0.000000 0.000000 14.249487 -6.259740 -32.079508 -9.302811 -16.998707 57.131538 -2.194542 -12.541363 -34.755445 -0.325086 3.664761 -10.135495 1.139959 6.564477 19.602086 -1.465265 8.872964 12.071486 -3.635436 4.680378 2.646676 0.100536 5.482369 7.361658 1.926544 7.319658 0.772410 0.350647 3.613782 -1.052798 0.000000 0.000000 0.000000 -5.991188 -52.792895 -59.186235 150.360343 -40.582476 108.825593 -33.863247 -7.968759 -37.793342 0.000000 0.000000 0.000000 -7.125000 0.000000 0.000000 -70.206738 54.739205 25.901735 0.000000 0.000000 0.000000 -3.975175 -46.297785 43.698880 -149.296781 -41.488616 -108.127287 32.150496 13.143399 9.767820 0.000000 0.000000 0.000000 7.125000 0.000000 0.000000 45.115609 34.999218 15.520776
-0.473468 16.678397 -0.875771 4.440147 16.328867 3.085724 0.000000 0.000000 0.000000 -19.347497 -12.775641 -28.769392 7.746536 15.929602 51.644441 1.533798 -5.876513 -22.239656 0.741586 -5.500976 -15.343096 0.000000 0.000000 0.000000 14.168070 -6.741172 -32.167684 -9.340075 -17.021605 57.258895 -2.268926 -12.321982 -35.005749 -0.289128 3.457836 -9.556106 1.072567 6.503215 19.732263 -1.357459 8.786472 12.100994 -3.487513 4.629718 2.577940 0.107395 5.250557 7.524246 1.537601 7.009687 0.512504 0.231674 3.463593 -1.145188 0.000000 0.000000 0.000000 -6.313577 -52.566467 -59.410753 150.302373 -40.632886 108.787761 -34.588247 -7.463229 -37.098452 0.000000 0.000000 0.000000 -7.125000 0.000000 0.000000 -69.866195 54.223410 24.636167 0.000000 0.000000 0.000000 -3.999319 -46.369490 43.755508 -149.226378 -41.547329 -108.080596 32.044831 13.024094 9.937193 0.000000 0.000000 0.000000 7.125000 0.000000 0.000000 45.156578 35.164910 15.267613
-0.471528 16.678558 -0.880037 4.389290 16.657466 3.006784 0.000000 0.000000 0.000000 -19.309394 -13.106146 -28.650723 7.762061 15.941387 51.701032 1.510644 -6.018480 -22.054805 0.696114 -5.333245 -14.861678 0.000000 0.000000 0.000000 14.214042 -7.380013 -32.219854 -9.329309 -17.015006 57.222065 -2.189861 -12.641166 -34.801900 -0.393314 4.025316 -11.148160 1.170277 6.371014 19.920311 -1.297797 8.629979 12.075075 -3.478983 4.552670 2.448032 0.327745 5.088646 7.491062 1.478005 6.810871 0.618174 0.187061 3.366946 -1.094096 0.000000 0.000000 0.000000 -6.615480 -52.215116 -59.756137 150.358925 -40.583791 108.824614 -34.432011 -7.669212 -37.228051 0.000000 0.000000 0.000000 -7.125000 0.000000 0.000000 -69.914717 54.324184 24.871466 0.000000 0.000000 0.000000 -4.113189 -46.392641 43.598013 -149.245246 -41.531645 -108.093063 32.036949 13.078268 9.953895 0.000000 0.000000 0.000000 7.125000 0.000000 0.000000 45.161800 35.180692 15.244324
-0.467900 16.672492 -0.890811 4.316074 16.758611 3.027814 0.000000 0.000000 0.000000 -19.228530 -13.259730 -28.781032 7.797416 15.968212 51.829558 1.516401 -5.937434 -22.103918 0.750762 -5.534421 -15.439437 0.000000 0.000000 0.000000 14.271860 -7.467942 -32.382438 -9.348945 -17.027127 57.289351 -2.307096 -12.069641 -35.036531 -0.291016 3.468934 -9.587055 1.298261 6.243804 20.111589 -1.360366 8.482310 12.020173 -3.618128 4.485609 2.311098 0.326238 4.970568 7.382057 1.633845 6.656070 0.681194 0.243958 3.288385 -1.060636 0.000000 0.000000 0.000000 -6.811809 -52.080322 -60.096349 150.576494 -40.394130 108.965926 -34.554649 -7.587351 -36.886233 0.000000 0.000000 0.000000 -7.125000 0.000000 0.000000 -69.584872 54.118260 24.228901 0.000000 0.000000 0.000000 -4.058197 -46.436291 43.582219 -149.260349 -41.519059 -108.103033 32.007409 13.029669 10.010329 0.000000 0.000000 0.000000 7.125000 0.000000 0.000000 45.178070 35.234611 15.163801
-0.469373 16.666022 -0.900775 4.346740 16.793622 3.046874 0.000000 0.000000 0.000000 -19.252483 -13.353838 -28.885716 7.827004 15.990528 51.937169 1.518409 -5.788385 -22.130425 0.856952 -5.903380 -16.504345 0.000000 0.000000 0.000000 14.233080 -7.304042 -32.442790 -9.398626 -17.057549 57.458888 -2.330367 -12.135019 -35.208279 -0.284046 3.427379 -9.470939 1.155479 6.072272 20.326742 -1.467472 8.232878 11.993507 -3.641276 4.353872 2.152318 0.322210 4.994042 7.709086 1.421913 6.688684 0.361669 0.164228 3.303942 -1.211340 0.000000 0.000000 0.000000 -5.983490 -52.079615 -59.671107 150.915958 -40.095246 109.185142 -35.099270 -8.486682 -38.122111 0.000000 0.000000 0.000000 -7.125000 0.000000 0.000000 -71.485866 54.644201 26.656265 0.000000 0.000000 0.000000 -3.636391 -46.466714 44.233579 -149.281700 -41.501200 -108.117200 31.899885 13.102651 9.905407 0.000000 0.000000 0.000000 7.125000 0.000000 0.000000 45.070569 35.166169 15.209896
-0.463766 16.664843 -0.898255 4.376736 17.053268 3.020734 0.000000 0.000000 0.000000 -19.326744 -13.550675 -28.731401 7.804009 15.973165 51.853502 1.525015 -5.751469 -22.183584 0.885621 -5.998886 -16.781265 0.000000 0.000000 0.000000 14.181577 -7.569486 -32.405809 -9.391160 -17.052988 57.433350 -2.391658 -11.913728 -35.386382 -0.260609 3.282902 -9.067461 1.180134 5.811961 20.468230 -1.647008 7.902663 12.065715 -3.800191 4.200743 2.169533 -0.127416 5.050193 7.719527 1.829730 6.732665 0.393821 0.361157 3.318024 -1.235710 0.000000 0.000000 0.000000 -5.549814 -52.078060 -59.185489 150.775314 -40.219468 109.094502 -34.511664 -8.042645 -38.224709 0.000000 0.000000 0.000000 -7.125000 0.000000 0.000000 -71.200462 54.822001 26.795582 0.000000 0.000000 0.000000 -2.957434 -46.354961 45.077048 -149.491620 -41.325204 -108.256102 32.020392 13.303763 9.911630 0.000000 0.000000 0.000000 7.125000 0.000000 0.000000 45.131233 35.147802 15.280020
-0.466102 16.696456 -0.875952 4.278241 17.474298 2.994670 0.000000 0.000000 0.000000 -19.233146 -13.625538 -28.318035 7.647424 15.853687 51.282391 1.471240 -6.304522 -21.737692 0.731212 -5.463244 -15.234529 0.000000 0.000000 0.000000 14.414224 -8.013116 -31.980459 -9.189586 -16.928239 56.743674 -2.355200 -12.215639 -35.398693 -0.271802 3.353517 -9.264523 1.309847 5.619024 20.659426 -1.842997 7.671349 11.914040 -4.072056 4.094767 1.936794 -0.305378 4.877416 7.515664 2.133839 6.490390 0.673672 0.501528 3.195692 -1.127169 0.000000 0.000000 0.000000 -4.155181 -51.254923 -58.138494 150.323568 -40.614401 108.801649 -33.454908 -8.080779 -37.887721 0.000000 0.000000 0.000000 -7.125000 0.000000 0.000000 -70.032806 54.875680 26.042274 0.000000 0.000000 0.000000 -2.375175 -46.267909 45.178044 -149.939473 -40.945279 -108.550703 32.577195 13.114830 9.664530 0.000000 0.000000 0.000000 7.125000 0.000000 0.000000 45.258676 34.824675 15.913462
-0.466853 16.767348 -0.812013 3.957637 18.601898 2.907894 0.000000 0.000000 0.000000 -19.016687 -14.308310 -27.264278 7.326159 15.600451 50.097348 1.427967 -6.277319 -21.406990 0.749172 -5.528608 -15.422577 0.000000 0.000000 0.000000 14.970392 -9.558115 -31.191815 -8.750211 -16.644165 55.221944 -2.316975 -12.175645 -35.164228 -0.274852 3.371735 -9.315505 1.633610 5.230545 20.689509 -2.041229 7.210120 11.238494 -4.432184 3.859949 1.206163 -0.282310 4.394591 7.213444 2.048868 5.848838 0.852584 0.502270 2.882357 -1.007325 0.000000 0.000000 0.000000 0.472906 -46.852272 -56.999577 150.141911 -40.771348 108.683121 -31.581452 -5.368816 -37.691999 0.000000 0.000000 0.000000 -7.125000 0.000000 0.000000 -68.441096 55.176732 25.482347 0.000000 0.000000 0.000000 -2.780350 -47.379590 44.878960 -150.554031 -40.413704 -108.951330 32.492290 12.840899 9.871092 0.000000 0.000000 0.000000 7.125000 0.000000 0.000000 45.330520 35.018933 15.630260
